<svg id="Capa_1" enable-background="new 0 0 512 512" height="512" viewBox="0 0 512 512" width="512" xmlns="http://www.w3.org/2000/svg"><g><g><path d="m32.5 375.098h447c13.807 0 25-11.193 25-25v-248.093c0-13.807-11.193-25-25-25h-307.75l-14.296-42.815c-3.407-10.202-12.957-17.082-23.713-17.082h-101.241c-13.807 0-25 11.193-25 25v307.99c0 13.807 11.193 25 25 25z" fill="#fd8087"/><path d="m324.546 94.087c-2.556 7.654-9.72 12.815-17.789 12.815h-299.257v243.196c0 13.807 11.193 25 25 25h447c13.807 0 25-11.193 25-25v-248.093c0-13.807-11.193-25-25-25h-131.241c-10.756 0-20.306 6.88-23.713 17.082z" fill="#fe646f"/><path d="m469.5 434.995h-437c-13.807 0-25-11.193-25-25v-248.093c0-13.807 11.193-25 25-25h307.75l14.296-42.815c3.407-10.202 12.957-17.082 23.713-17.082h91.241c13.807 0 25 11.193 25 25v307.99c0 13.807-11.193 25-25 25z" fill="#8ac9fe"/><path d="m504.5 409.995c0 13.807-11.193 25-25 25h-30-417c-13.807 0-25-11.193-25-25v-243.196h442c13.807 0 25-11.193 25-25v-39.794c0-13.807-11.193-25-25-25h30c13.807 0 25 11.193 25 25z" fill="#60b7ff"/><path d="m32.5 494.892h437c13.807 0 25-11.193 25-25v-248.093c0-13.807-11.193-25-25-25h-297.75l-14.296-42.815c-3.407-10.202-12.957-17.082-23.713-17.082h-101.241c-13.807 0-25 11.193-25 25v307.99c0 13.807 11.193 25 25 25z" fill="#fed402"/><g><path d="m479.5 196.799h-30c13.807 0 25 11.193 25 25v248.093c0 13.807-11.193 25-25 25h30c13.807 0 25-11.193 25-25v-248.093c0-13.807-11.193-25-25-25z" fill="#fac600"/></g><path d="m173.835 375.098h-108.65c-5.523 0-10 4.477-10 10v52.552c0 5.523 4.477 10 10 10h108.65c5.523 0 10-4.477 10-10v-52.552c0-5.523-4.477-10-10-10z" fill="#efedef"/></g><g id="_x31_1_folders_1_"><path d="m504.5 142.981c4.142 0 7.5-3.358 7.5-7.5v-33.476c0-17.92-14.58-32.5-32.5-32.5h-101.241-105.916c-4.142 0-7.5 3.358-7.5 7.5s3.358 7.5 7.5 7.5h78.523c-1.426 2.233-2.596 4.696-3.434 7.207l-12.585 37.69h-201.106-101.241c-6.169 0-12.306 1.795-17.5 5.124v-92.418c0-9.649 7.851-17.5 17.5-17.5h101.241c7.54 0 14.211 4.805 16.6 11.957l14.296 42.815c1.022 3.061 3.887 5.124 7.114 5.124h67.907c4.142 0 7.5-3.358 7.5-7.5s-3.358-7.5-7.5-7.5h-62.504l-12.585-37.691c-4.435-13.282-16.824-22.206-30.827-22.206h-101.242c-17.92.001-32.5 14.58-32.5 32.501v119.794 101.848c0 4.142 3.358 7.5 7.5 7.5s7.5-3.358 7.5-7.5v-101.848c0-9.65 7.851-17.5 17.5-17.5h101.241c.943 0 1.871.075 2.78.22 6.361 1.018 11.729 5.479 13.819 11.737l14.296 42.815c1.022 3.061 3.887 5.124 7.114 5.124h307.75c9.649 0 17.5 7.851 17.5 17.5v248.093c0 9.649-7.851 17.5-17.5 17.5h-447c-9.649 0-17.5-7.851-17.5-17.5v-173.455c0-4.142-3.358-7.5-7.5-7.5s-7.5 3.358-7.5 7.5v173.456c0 17.92 14.58 32.5 32.5 32.5h447c17.92 0 32.5-14.58 32.5-32.5v-248.093-53.632c0-4.142-3.358-7.5-7.5-7.5s-7.5 3.358-7.5 7.5v26.256c-5.194-3.329-11.331-5.124-17.5-5.124h-302.347l-12.585-37.69c-.838-2.511-2.009-4.972-3.434-7.206h179.116c2.824 0 5.37-1.58 6.647-4.026.182-.349.339-.716.467-1.099l14.296-42.815c2.388-7.152 9.059-11.957 16.599-11.957h101.241c9.649 0 17.5 7.851 17.5 17.5v33.476c0 4.141 3.358 7.499 7.5 7.499z"/><path d="m173.835 455.15c9.649 0 17.5-7.851 17.5-17.5v-52.552c0-9.649-7.851-17.5-17.5-17.5h-108.65c-9.649 0-17.5 7.851-17.5 17.5v52.552c0 9.649 7.851 17.5 17.5 17.5zm-111.15-17.5v-52.552c0-1.378 1.122-2.5 2.5-2.5h108.65c1.378 0 2.5 1.122 2.5 2.5v52.552c0 1.378-1.122 2.5-2.5 2.5h-108.65c-1.379 0-2.5-1.122-2.5-2.5z"/><path d="m88.13 418.874h63.031c4.142 0 7.5-3.358 7.5-7.5s-3.358-7.5-7.5-7.5h-63.031c-4.142 0-7.5 3.358-7.5 7.5s3.358 7.5 7.5 7.5z"/></g></g></svg>