<svg id="Capa_1" enable-background="new 0 0 512 512" height="512" viewBox="0 0 512 512" width="512" xmlns="http://www.w3.org/2000/svg"><g><g><path d="m504.5 195.177v219.273c0 49.733-40.317 90.05-90.05 90.05h-316.9c-49.733 0-90.05-40.317-90.05-90.05v-316.9c0-49.733 40.317-90.05 90.05-90.05h219.264c11.522 0 22.573 4.577 30.721 12.724l144.238 144.23c8.149 8.148 12.727 19.2 12.727 30.723z" fill="#9dc6fb"/><path d="m143.44 504.5h-45.89c-49.73 0-90.05-40.32-90.05-90.05v-316.9c0-49.73 40.32-90.05 90.05-90.05h45.89c-49.73 0-90.05 40.32-90.05 90.05v316.9c0 49.73 40.32 90.05 90.05 90.05z" fill="#80b4fb"/><path d="m278.798 168.387h-143.232c-20.996 0-38.016-17.02-38.016-38.016v-122.871h219.264v122.871c0 20.996-17.02 38.016-38.016 38.016z" fill="#f9f6f9"/><path d="m253.027 140.197c-14.876 0-26.936-12.06-26.936-26.936v-47.886c0-14.876 12.06-26.936 26.936-26.936 14.876 0 26.936 12.06 26.936 26.936v47.886c-.001 14.876-12.06 26.936-26.936 26.936z" fill="#2b4d66"/><path d="m364.292 231.978h-216.584c-27.701 0-50.158 22.456-50.158 50.158v95.218c0 27.701 22.456 50.158 50.158 50.158h216.584c27.701 0 50.158-22.456 50.158-50.158v-95.218c0-27.702-22.457-50.158-50.158-50.158z" fill="#f9f6f9"/></g><g><path d="m497.073 159.147-144.233-144.233c-9.629-9.618-22.424-14.914-36.03-14.914h-219.26c-53.789 0-97.55 43.761-97.55 97.55v316.9c0 53.789 43.761 97.55 97.55 97.55h286.9c4.142 0 7.5-3.358 7.5-7.5s-3.358-7.5-7.5-7.5h-286.9c-45.518 0-82.55-37.032-82.55-82.55v-316.9c0-42.989 33.035-78.39 75.05-82.194v60.624c0 4.142 3.358 7.5 7.5 7.5s7.5-3.358 7.5-7.5v-60.98h204.26v115.37c0 16.829-13.687 30.52-30.51 30.52h-143.23c-16.829 0-30.52-13.691-30.52-30.52v-24.39c0-4.142-3.358-7.5-7.5-7.5s-7.5 3.358-7.5 7.5v24.39c0 25.1 20.42 45.52 45.52 45.52h143.23c25.094 0 45.51-20.42 45.51-45.52v-114.583c6.741 1.423 12.938 4.755 17.927 9.737l144.23 144.23c6.792 6.792 10.533 15.822 10.533 25.426v219.27c0 45.518-37.032 82.55-82.55 82.55-4.142 0-7.5 3.358-7.5 7.5s3.358 7.5 7.5 7.5c53.789 0 97.55-43.761 97.55-97.55v-219.27c0-13.611-5.301-26.408-14.927-36.033z"/><path d="m287.462 113.261v-47.886c0-18.988-15.448-34.436-34.436-34.436s-34.436 15.448-34.436 34.436v47.886c0 18.988 15.448 34.436 34.436 34.436 18.989 0 34.436-15.448 34.436-34.436zm-53.871 0v-47.886c0-10.717 8.719-19.436 19.436-19.436s19.436 8.719 19.436 19.436v47.886c0 10.717-8.719 19.436-19.436 19.436-10.717 0-19.436-8.719-19.436-19.436z"/><path d="m421.95 282.136c0-31.792-25.865-57.658-57.658-57.658h-216.584c-31.793 0-57.658 25.865-57.658 57.658v95.219c0 31.792 25.865 57.658 57.658 57.658h216.584c31.792 0 57.658-25.865 57.658-57.658zm-15 95.218c0 23.521-19.136 42.658-42.658 42.658h-216.584c-23.522 0-42.658-19.136-42.658-42.658v-95.219c0-23.521 19.136-42.658 42.658-42.658h216.584c23.521 0 42.658 19.136 42.658 42.658z"/><path d="m355.762 299.549h-199.524c-4.142 0-7.5 3.358-7.5 7.5s3.358 7.5 7.5 7.5h199.524c4.142 0 7.5-3.358 7.5-7.5s-3.358-7.5-7.5-7.5z"/><path d="m355.762 344.941h-199.524c-4.142 0-7.5 3.358-7.5 7.5s3.358 7.5 7.5 7.5h199.524c4.142 0 7.5-3.358 7.5-7.5s-3.358-7.5-7.5-7.5z"/></g></g></svg>